<svg aria-hidden="true" style="position: absolute; width: 0; height: 0; overflow: hidden;" version="1.1" xmlns="http://www.w3.org/2000/svg" xmlns:xlink="http://www.w3.org/1999/xlink">
<defs>
<symbol id="icon-antenna-1" viewBox="0 0 32 32">
<path fill="#212121" style="fill: var(--color1, #212121)" d="M30.78 22.103l-8.445-8.507 0.937-4.617c0.225 0.090 0.485 0.144 0.758 0.146h0.007c0.008 0 0.017 0 0.026 0 1.193 0 2.16-0.967 2.16-2.16s-0.967-2.16-2.16-2.16c-1.193 0-2.16 0.967-2.16 2.16 0 0.259 0.046 0.508 0.13 0.739l-0.005-0.015-4.961 0.606-8.092-8.135c-0.096-0.098-0.229-0.159-0.377-0.16h-0c-0.14 0.001-0.274 0.057-0.374 0.155l-1.512 1.504c-0.096 0.097-0.156 0.23-0.156 0.377s0.060 0.281 0.156 0.377v0l0.814 0.825c-1.143 2.063-1.816 4.523-1.816 7.141 0 4.106 1.656 7.826 4.337 10.527l-0.001-0.001c0.043 0.041 0.092 0.074 0.146 0.097-0.032 0.164-0.051 0.353-0.052 0.546v6.189h-6.401c-1.473 0.001-2.666 1.195-2.668 2.667v1.067c0 0.295 0.239 0.534 0.534 0.534h24.539c0.294 0 0.533-0.239 0.533-0.534v-1.067c-0.002-1.472-1.195-2.665-2.667-2.667h-6.402v-2.743c1.003 0.21 2.025 0.317 3.049 0.32 2.58-0.003 5.006-0.663 7.119-1.823l-0.077 0.039 0.818 0.823c0.099 0.101 0.235 0.159 0.376 0.16 0.14-0.001 0.274-0.057 0.374-0.155l1.513-1.504c0.096-0.097 0.156-0.23 0.156-0.377s-0.060-0.281-0.156-0.377v0zM23.285 6.235c0.193-0.192 0.459-0.31 0.752-0.31 0.589 0 1.067 0.478 1.067 1.067s-0.478 1.067-1.067 1.067c-0 0-0 0-0 0h-0.004c-0.587-0.003-1.061-0.48-1.061-1.067 0-0.296 0.12-0.563 0.314-0.756l0-0h-0.002zM22.029 9.739l-0.599 2.947-1.176-1.183 1.774-1.764zM21.423 8.837l-1.92 1.909-1.486-1.494 3.406-0.416zM24.009 28.806c0.884 0 1.6 0.716 1.6 1.6v0 0.534h-23.472v-0.534c0-0.884 0.716-1.6 1.6-1.6v0h20.271zM16.541 26.672v1.067h-5.335v-1.067h5.335zM11.207 25.606v-4.054c0-1.294 1.197-2.347 2.667-2.347s2.668 1.053 2.668 2.347v4.054h-5.335zM17.608 23.909v-2.358c0-1.882-1.675-3.414-3.734-3.414-0.017-0-0.038-0-0.058-0-1.353 0-2.541 0.707-3.214 1.771l-0.009 0.016c-2.36-2.482-3.812-5.848-3.812-9.552 0-2.315 0.567-4.497 1.569-6.416l-0.036 0.077 18.606 18.713c-1.823 0.947-3.98 1.502-6.267 1.502-1.079 0-2.129-0.124-3.137-0.357l0.093 0.018zM28.9 23.225l-21.062-21.186 0.754-0.752 7.937 7.982c0.004 0 0.006 0.007 0.010 0.010l13.117 13.194-0.757 0.752z"></path>
<path fill="#2196f3" style="fill: var(--color2, #2196f3)" d="M13.879 20.271h-0.005c-0.001 0-0.002 0-0.002 0-0.884 0-1.6 0.716-1.6 1.6s0.715 1.599 1.598 1.6h0.005c0.001 0 0.001 0 0.002 0 0.884 0 1.6-0.716 1.6-1.6s-0.715-1.599-1.598-1.6h-0zM14.252 22.25c-0.096 0.096-0.23 0.155-0.377 0.155-0.295 0-0.534-0.239-0.534-0.534s0.238-0.533 0.532-0.534h0c0.293 0.001 0.531 0.239 0.531 0.533 0 0.148-0.060 0.282-0.157 0.378l-0 0h0.005z"></path>
</symbol>
<symbol id="icon-astronaut-1" viewBox="0 0 32 32">
<path fill="#2196f3" style="fill: var(--color2, #2196f3)" d="M31.981 4.525c-0.064-0.191-0.227-0.332-0.427-0.362l-0.003-0-1.911-0.278-0.855-1.732c-0.179-0.365-0.777-0.365-0.956 0l-0.855 1.732-1.911 0.278c-0.26 0.039-0.457 0.26-0.457 0.528 0 0.15 0.062 0.285 0.161 0.382l1.384 1.348-0.326 1.903c-0.034 0.2 0.048 0.402 0.212 0.522 0.166 0.12 0.383 0.135 0.562 0.040l1.709-0.899 1.709 0.899c0.072 0.038 0.157 0.061 0.248 0.061 0.295 0 0.534-0.239 0.534-0.534 0-0.031-0.003-0.062-0.008-0.092l0 0.003-0.326-1.903 1.383-1.348c0.099-0.097 0.161-0.233 0.161-0.382 0-0.059-0.009-0.115-0.027-0.168l0.001 0.004zM29.518 5.853c-0.126 0.122-0.183 0.3-0.153 0.472l0.191 1.114-1-0.526c-0.072-0.039-0.158-0.062-0.249-0.062s-0.177 0.023-0.252 0.063l0.003-0.001-1 0.526 0.191-1.114c0.005-0.027 0.008-0.059 0.008-0.091 0-0.149-0.061-0.285-0.16-0.382l-0-0-0.811-0.79 1.119-0.162c0.174-0.025 0.324-0.134 0.402-0.292l0.5-1.013 0.5 1.013c0.078 0.158 0.228 0.267 0.402 0.292l1.119 0.162-0.809 0.79zM26.139 20.527h-1.067v1.067h1.067v-1.067zM26.139 22.661h-1.067v1.066h1.067v-1.066zM27.206 21.594h-1.067v1.067h1.067v-1.067zM25.073 21.594h-1.067v1.067h1.067v-1.067zM22.405 26.395h-1.067v1.067h1.067v-1.067zM22.405 28.529h-1.067v1.067h1.067v-1.067zM23.472 27.462h-1.067v1.067h1.067v-1.067zM21.338 27.462h-1.067v1.067h1.067v-1.067zM16.004 24.261h-1.067v1.067h1.067v-1.067zM16.004 26.395h-1.067v1.067h1.067v-1.067zM17.070 25.328h-1.067v1.067h1.067v-1.067zM14.937 25.328h-1.067v1.067h1.067v-1.067zM5.868 6.123h-1.067v1.067h1.067v-1.067zM5.868 8.257h-1.067v1.067h1.067v-1.066zM6.935 7.19h-1.067v1.067h1.067v-1.067zM4.801 7.19h-1.067v1.067h1.067v-1.067z"></path>
<path fill="#212121" style="fill: var(--color1, #212121)" d="M24.721 14.163c-0.28-0.377-0.699-0.636-1.18-0.704l-0.009-0.001c-0.076-0.012-0.164-0.018-0.254-0.018-0.411 0-0.789 0.139-1.090 0.373l0.004-0.003-1.253 0.96-1.898 1.417-1.358-0.541c2.422-1.086 4.114-3.509 4.114-6.321 0-3.824-3.123-6.935-6.962-6.935s-6.963 3.111-6.963 6.935c0 1.386 0.415 2.675 1.12 3.759l-2.769-0.024c-0.009 0-0.016 0.005-0.023 0.005-0.057 0.003-0.11 0.014-0.159 0.033l0.004-0.001c-0.013 0.005-0.026 0.007-0.038 0.013-0.006 0.003-0.013 0.003-0.019 0.006l-3.234 1.596c-0 0-0.001 0-0.001 0.001l-1.893 0.91c-0.024 0.011-0.045 0.023-0.065 0.036l0.001-0.001c-0.482 0.324-0.795 0.867-0.795 1.483 0 0.297 0.073 0.577 0.201 0.824l-0.005-0.010c0.22 0.424 0.593 0.742 1.044 0.885l0.013 0.003c0.161 0.053 0.345 0.083 0.538 0.083 0.308 0 0.598-0.078 0.851-0.216l-0.009 0.005 1.388-0.738 2.264-1.17 1.357-0.008-5.443 5.417c0 0.001-0.001 0.001-0.001 0.001l-1.339 1.333c-0.303 0.299-0.491 0.715-0.491 1.174 0 0.002 0 0.003 0 0.005v-0c0.002 0.92 0.748 1.664 1.668 1.664 0.001 0 0.002 0 0.002 0h-0c0.428 0 0.855-0.162 1.181-0.486l1.315-1.309 1.741-1.3 0.901 0.897-3.102 3.089c-0.303 0.299-0.491 0.715-0.491 1.174 0 0.001 0 0.003 0 0.004v-0c0 0.445 0.174 0.864 0.491 1.179 0.302 0.3 0.717 0.485 1.176 0.485 0.001 0 0.002 0 0.003 0h-0c0.428 0 0.855-0.162 1.181-0.485l4.489-4.473c0.007-0.006 0.016-0.009 0.022-0.016l5.167-5.659 3.472 0.494c0.025 0.004 0.050 0.006 0.075 0.006 0.064 0 0.127-0.016 0.187-0.038 0.017-0.006 0.032-0.015 0.049-0.023 0.019-0.010 0.039-0.015 0.058-0.027l3.214-2.134c0.012-0.008 0.018-0.021 0.029-0.030 0.013-0.010 0.029-0.014 0.041-0.026l1.271-1.191c0.348-0.326 0.564-0.788 0.564-1.3 0-0.4-0.132-0.769-0.355-1.067l0.003 0.005zM2.131 17.774c-0.098 0.054-0.215 0.086-0.34 0.086-0.078 0-0.153-0.013-0.224-0.036l0.005 0.001c-0.294-0.093-0.504-0.364-0.504-0.684 0-0.235 0.114-0.444 0.289-0.575l0.002-0.001 1.314-0.632 0.316 0.925 0.133 0.389-0.992 0.527zM5.629 15.946l-1.549 0.8-0.255-0.747-0.184-0.537 2.027-1.001-0.040 1.484zM20.732 9.324c0 0.919-0.219 1.785-0.599 2.56l-4.182-1.9c-0.044-0.575-0.342-1.073-0.782-1.384l-0.006-0.004 1.465-4.862c2.378 0.757 4.105 2.975 4.105 5.589zM8.94 9.324c0-3.235 2.645-5.868 5.896-5.868 0.253 0 0.5 0.022 0.745 0.053l-1.433 4.754c-0.019 0-0.037-0.006-0.057-0.006-0 0-0.001 0-0.001 0-1.032 0-1.869 0.835-1.872 1.867v0c0.003 1.032 0.84 1.867 1.872 1.867 0 0 0 0 0.001 0h-0c0.695 0 1.295-0.383 1.619-0.945l3.864 1.755c-1.075 1.447-2.796 2.39-4.738 2.39-3.251 0-5.896-2.632-5.896-5.868zM14.898 10.124c0 0.441-0.362 0.8-0.807 0.8-0 0-0.001 0-0.001 0-0.443 0-0.802-0.358-0.804-0.8v-0c0-0.441 0.361-0.8 0.806-0.8s0.806 0.359 0.806 0.8zM2.465 25.152c-0.11 0.109-0.261 0.176-0.428 0.176s-0.317-0.067-0.427-0.175l0 0c-0.109-0.108-0.176-0.257-0.176-0.422s0.067-0.314 0.176-0.422l0-0 0.962-0.959 0.852 0.848-0.959 0.955zM5.679 28.886c-0.11 0.109-0.261 0.176-0.428 0.176s-0.317-0.067-0.427-0.175l0 0c-0.109-0.108-0.176-0.257-0.176-0.422s0.067-0.315 0.176-0.422l0-0 0.963-0.959 0.852 0.848-0.96 0.956zM9.162 25.416l-0.001 0.001-1.765 1.76-0.852-0.848 1.765-1.757c0.040-0.040 0.065-0.088 0.090-0.136 0.007-0.014 0.020-0.026 0.026-0.040 0.016-0.041 0.019-0.085 0.026-0.128 0.003-0.025 0.014-0.048 0.014-0.073 0-0.035-0.013-0.070-0.020-0.105-0.006-0.032-0.006-0.064-0.019-0.096-0.025-0.053-0.055-0.098-0.092-0.138l0 0c-0.010-0.012-0.014-0.027-0.025-0.038h-0.001s0-0.001-0.001-0.002l-1.607-1.6c-0.017-0.017-0.039-0.024-0.058-0.038-0.025-0.021-0.054-0.040-0.084-0.056l-0.003-0.001c-0.026-0.012-0.058-0.023-0.090-0.031l-0.003-0.001c-0.030-0.009-0.065-0.017-0.101-0.020l-0.002-0c-0.007-0-0.015-0-0.023-0-0.026 0-0.051 0.002-0.075 0.005l0.003-0c-0.036 0.005-0.069 0.009-0.104 0.021s-0.064 0.027-0.094 0.045c-0.020 0.011-0.043 0.015-0.061 0.029l-1.774 1.324-0.901-0.898 2.4-2.387 4.361 4.29-0.928 0.919zM15.983 18.398c-0.016-0.002-0.030 0.004-0.046 0.003-0.008-0-0.017-0.001-0.027-0.001-0.031 0-0.062 0.003-0.092 0.008l0.003-0c-0.070 0.011-0.132 0.035-0.187 0.070l0.002-0.001c-0.030 0.018-0.057 0.037-0.083 0.061-0.013 0.011-0.028 0.016-0.040 0.029l-4.699 5.147-4.329-4.257 2.834-2.819c0.096-0.097 0.156-0.23 0.156-0.377 0-0.295-0.239-0.534-0.534-0.534-0.001 0-0.001 0-0.002 0h0l-2.219 0.013 0.028-1.608 3.105 0.027c1.264 1.297 3.028 2.101 4.979 2.101 0.001 0 0.002 0 0.003 0h-0c0.438 0 0.864-0.046 1.28-0.123 0.040 0.032 0.080 0.064 0.129 0.085l2.411 0.96 0.152 0.759 0.178 0.886-3.004-0.428zM20.025 18.576l-0.313-1.558 1.447-1.080 0.947 1.257-2.080 1.382zM23.779 15.745l-0.838 0.785-0.931-1.236 0.831-0.637c0.155-0.119 0.351-0.168 0.543-0.143 0.193 0.027 0.364 0.128 0.48 0.284 0.088 0.117 0.141 0.265 0.141 0.426 0 0.206-0.087 0.391-0.226 0.521l-0 0z"></path>
<path fill="#212121" style="fill: var(--color1, #212121)" d="M13.605 18.548l-2.144-2.134c-0.096-0.096-0.229-0.155-0.376-0.155s-0.28 0.059-0.376 0.155l-2.143 2.134c-0.097 0.097-0.156 0.231-0.156 0.378s0.060 0.281 0.156 0.378l-0-0 2.143 2.134c0.096 0.096 0.23 0.156 0.377 0.156s0.28-0.059 0.377-0.156v0l2.144-2.134c0.097-0.097 0.157-0.23 0.157-0.378s-0.060-0.282-0.157-0.378l-0-0zM11.086 20.308l-1.387-1.381 1.387-1.381 1.388 1.381-1.388 1.381zM17.168 5.072l-0.258 1.036c0.071 0.018 1.738 0.452 1.738 2.149h1.067c0-2.017-1.666-2.966-2.547-3.185zM19.715 9.324h-1.067v1.067h1.067v-1.067z"></path>
</symbol>
<symbol id="icon-clock-1" viewBox="0 0 32 32">
<path fill="#212121" style="fill: var(--color1, #212121)" d="M31.303 15.304c-0.001-8.454-6.856-15.306-15.311-15.304s-15.306 6.857-15.304 15.311c0.002 6.789 4.423 12.545 10.543 14.548l0.108 0.031c0.061 0.019 0.123 0.029 0.187 0.029 0.12 0 0.238-0.032 0.342-0.094 0.135-0.080 0.236-0.207 0.284-0.357l3.866-12.253c1.054-0.004 1.907-0.859 1.907-1.913 0-1.057-0.857-1.913-1.913-1.913-0.303 0-0.59 0.071-0.845 0.196l0.011-0.005-5.107-5.108c-0.115-0.111-0.271-0.179-0.443-0.179-0.352 0-0.638 0.286-0.638 0.638 0 0.172 0.068 0.328 0.179 0.443l-0-0 5.104 5.11c-0.121 0.241-0.191 0.525-0.191 0.826 0 0.602 0.283 1.137 0.724 1.481l0.004 0.003-3.683 11.676c-7.279-2.682-11.007-10.757-8.325-18.036s10.756-11.007 18.036-8.325c7.279 2.681 11.007 10.756 8.325 18.036-1.345 3.582-4.004 6.408-7.375 7.94l-0.088 0.036-0.398-1.875c-0.063-0.291-0.318-0.506-0.624-0.506-0.164 0-0.313 0.062-0.426 0.163l0.001-0.001-3.838 3.427c-0.132 0.117-0.214 0.287-0.214 0.477 0 0.283 0.185 0.524 0.441 0.607l0.005 0.001 4.9 1.564c0.058 0.020 0.126 0.031 0.196 0.031 0.352 0 0.637-0.285 0.637-0.637 0-0.047-0.005-0.093-0.015-0.138l0.001 0.004-0.391-1.839c5.529-2.375 9.331-7.773 9.331-14.060 0-0.011 0-0.023-0-0.034v0.002zM15.996 14.667c0.352 0 0.638 0.286 0.638 0.638s-0.286 0.638-0.638 0.638v0c-0.352 0-0.638-0.286-0.638-0.638s0.286-0.638 0.638-0.638v0zM18.096 29.534l2.185-1.949 0.603 2.841-2.788-0.892z"></path>
<path fill="#2196f3" style="fill: var(--color2, #2196f3)" d="M15.358 3.186v1.276c0 0.352 0.286 0.638 0.638 0.638s0.638-0.286 0.638-0.638v0-1.276c0-0.352-0.286-0.638-0.638-0.638s-0.638 0.286-0.638 0.638v0zM3.877 14.667c-0.352 0-0.638 0.286-0.638 0.638s0.286 0.638 0.638 0.638h1.276c0.352 0 0.638-0.286 0.638-0.638s-0.286-0.638-0.638-0.638h-1.276zM28.115 15.943c0.352 0 0.638-0.286 0.638-0.638s-0.286-0.638-0.638-0.638h-1.276c-0.352 0-0.638 0.286-0.638 0.638s0.286 0.638 0.638 0.638h1.276z"></path>
</symbol>
<symbol id="icon-diagram-1" viewBox="0 0 32 32">
<path fill="#2196f3" style="fill: var(--color2, #2196f3)" d="M14.929 14.968h1.066v4.799h-1.066v-4.799zM19.194 17.101h1.066v2.666h-1.066v-2.666zM10.663 18.7h1.066v1.066h-1.066v-1.066zM7.465 18.167h1.066v1.599h-1.066v-1.599z"></path>
<path fill="#212121" style="fill: var(--color1, #212121)" d="M1.599 28.297h25.592c0 0 0 0 0 0 0.883 0 1.599-0.716 1.599-1.599v0-2.133c0-0.883-0.716-1.599-1.599-1.599v0h-0.533v-13.297l3.028-2.869c0.207 0.104 0.452 0.166 0.711 0.166 0.888 0 1.609-0.72 1.609-1.609s-0.72-1.609-1.609-1.609c-0.888 0-1.609 0.72-1.609 1.609 0 0.247 0.056 0.481 0.155 0.69l-0.004-0.010-2.282 2.163v-1.23c0-0.883-0.716-1.599-1.599-1.599v0h-21.327c-0.883 0-1.599 0.716-1.599 1.599v0 15.995h-0.533c-0.883 0-1.599 0.716-1.599 1.599v0 2.133c0 0.883 0.716 1.599 1.599 1.599v0zM30.391 4.838c0.294 0 0.533 0.239 0.533 0.533s-0.239 0.533-0.533 0.533v0c-0.294 0-0.533-0.239-0.533-0.533s0.239-0.533 0.533-0.533v0zM3.199 6.97c0-0.294 0.239-0.533 0.533-0.533h21.327c0.294 0 0.533 0.239 0.533 0.533v2.239l-1.066 1.013v-2.186c0-0.295-0.239-0.534-0.534-0.534h-19.194c-0.294 0-0.534 0.239-0.534 0.533v13.33c0 0.294 0.239 0.533 0.534 0.533h19.194c0.295 0 0.534-0.239 0.534-0.533v-9.677l1.066-1.011v12.286h-22.394v-15.994zM7.998 13.902c-0.001 0-0.003 0-0.005 0-0.883 0-1.599 0.716-1.599 1.599s0.716 1.599 1.599 1.599c0.432 0 0.825-0.172 1.113-0.45l-0 0 1.853 0.93c0.215 0.107 0.476 0.057 0.636-0.123l3.94-4.433 3.873 2.902c0.208 0.155 0.498 0.139 0.686-0.039l3.366-3.188v8.133h-18.127v-12.263h18.127v2.661l-3.772 3.572-3.905-2.928c-0.088-0.067-0.2-0.107-0.32-0.107-0.158 0-0.3 0.069-0.398 0.178l-0 0.001-3.994 4.494-1.493-0.747c0.011-0.064 0.017-0.129 0.020-0.193 0-0.883-0.716-1.599-1.599-1.599v0zM8.531 15.501c0 0.294-0.239 0.533-0.533 0.533s-0.533-0.239-0.533-0.533v0c0-0.294 0.239-0.533 0.533-0.533s0.533 0.239 0.533 0.533v0zM11.73 24.032h5.331v0.533c0 0.294-0.238 0.533-0.533 0.533h-4.266c-0.294 0-0.533-0.239-0.533-0.533v0-0.533zM1.067 24.565c0-0.294 0.238-0.533 0.533-0.533h9.064v0.533c0 0.883 0.716 1.599 1.599 1.599v0h4.266c0.883 0 1.599-0.716 1.599-1.599v0-0.533h9.064c0.294 0 0.533 0.239 0.533 0.533v2.133c0 0.294-0.239 0.533-0.533 0.533h-25.592c-0 0-0 0-0 0-0.294 0-0.533-0.239-0.533-0.533 0 0 0 0 0 0v0-2.133z"></path>
</symbol>
<symbol id="icon-envelope-hover" viewBox="0 0 43 32">
<path  d="M38.704-0.016h-34.701c-2.208 0-4.004 1.796-4.004 4.004v24.023c0 2.207 1.796 4.004 4.004 4.004h34.701c2.208 0 4.004-1.796 4.004-4.004v-24.023c0-2.208-1.796-4.004-4.004-4.004zM38.704 2.654c0.181 0 0.355 0.037 0.513 0.104l-17.863 15.482-17.863-15.482c0.151-0.065 0.327-0.104 0.512-0.104h34.701zM38.704 29.346h-34.701c-0.737 0-1.335-0.598-1.335-1.335v0-22.435l17.809 15.436c0.233 0.203 0.54 0.327 0.876 0.327s0.643-0.124 0.877-0.329l-0.002 0.001 17.809-15.436v22.435c0 0.737-0.598 1.335-1.335 1.335v0z"></path>
</symbol>
<symbol id="icon-facebook-1" viewBox="0 0 29 32">
<path  d="M19.398 6.466h2.659v-4.856c-0.459-0.067-2.036-0.215-3.872-0.215-3.833 0-6.457 2.528-6.457 7.176v4.277h-4.228v5.429h4.227v13.658h5.185v-13.658h4.057l0.643-5.429h-4.702v-3.738c0-1.568 0.403-2.642 2.488-2.642z"></path>
</symbol>
<symbol id="icon-group-1" viewBox="0 0 25 32">
<path d="M10.536 1.807h-0.084c-0.129-0.008-0.259-0.011-0.388-0.014h-0.28c-0.244 0-0.494 0.006-0.741 0.018-0.008-0.001-0.018-0.001-0.028-0.001s-0.020 0-0.029 0.001l0.001-0c-2.377 0.139-4.583 0.733-6.578 1.697l0.104-0.045-0.266 0.128v13.63l0.623-0.212c0.547-0.188 1.129-0.357 1.732-0.513 1.489-0.398 3.203-0.638 4.969-0.662l0.014-0v1.791c-0.223 0.001-0.439 0.007-0.656 0.018h-0.052c-1.399 0.079-2.71 0.289-3.972 0.619l0.139-0.031c-1.735 0.441-3.255 1.051-4.668 1.831l0.1-0.051v-17.48c1.38-0.82 2.976-1.488 4.666-1.921l0.127-0.028c1.353-0.364 2.908-0.576 4.511-0.582h0.267c0.315 0.008 0.622 0.022 0.91 0.044 0.83 0.060 1.598 0.187 2.34 0.379l-0.090-0.020v1.762c-0.628-0.154-1.373-0.271-2.135-0.326l-0.045-0.003-0.044-0.004c-0.152-0.013-0.304-0.026-0.446-0.026zM13.638 3.608c0.391 0.030 0.796 0.044 1.205 0.044 1.69-0.007 3.325-0.228 4.883-0.64l-0.135 0.030c1.734-0.443 3.253-1.052 4.666-1.832l-0.101 0.051v17.168c-1.38 0.819-2.976 1.488-4.666 1.921l-0.127 0.028c-1.354 0.363-2.909 0.574-4.512 0.581h-0.004c-0.033 0-0.072 0-0.111 0-1.177 0-2.319-0.147-3.41-0.425l0.095 0.021v-17.28c0.265 0.062 0.537 0.118 0.814 0.164 0.455 0.077 0.934 0.133 1.402 0.167zM22.375 3.741l-0.623 0.209c-0.572 0.193-1.151 0.365-1.732 0.518-1.551 0.415-3.333 0.657-5.17 0.664h-0.004c-0.406 0-0.78-0.011-1.141-0.034l-0.497-0.033v14.021l0.427 0.037c0.395 0.035 0.803 0.052 1.215 0.052 1.451-0.006 2.854-0.198 4.191-0.554l-0.116 0.026c1.221-0.31 2.281-0.702 3.286-1.189l-0.102 0.044 0.267-0.128v-13.634z"></path>
<path d="M1.686 25.984c-0.167-0.173-0.401-0.281-0.661-0.281-0.011 0-0.023 0-0.034 0.001l0.002-0c-0.004-0-0.009-0-0.014-0-0.139 0-0.272 0.028-0.393 0.078l0.007-0.003c-0.237 0.095-0.42 0.28-0.51 0.512l-0.002 0.006c-0.049 0.123-0.073 0.254-0.071 0.387v2.335c-0.006 0.164 0.026 0.328 0.092 0.479 0.055 0.12 0.135 0.227 0.234 0.313 0.093 0.078 0.203 0.135 0.32 0.166 0.114 0.031 0.231 0.048 0.349 0.048 0.13 0.001 0.259-0.026 0.377-0.081 0.351-0.156 0.591-0.501 0.591-0.902v-0.261h-0.611v0.208c0 0.004 0 0.009 0 0.014 0 0.070-0.013 0.136-0.037 0.198l0.001-0.004c-0.021 0.052-0.051 0.096-0.089 0.132l-0 0c-0.070 0.054-0.159 0.088-0.255 0.089h-0c-0.011 0.001-0.023 0.002-0.036 0.002-0.103 0-0.194-0.050-0.25-0.127l-0.001-0.001c-0.051-0.082-0.082-0.182-0.082-0.289 0-0.008 0-0.016 0.001-0.024l-0 0.001v-2.178c-0.004-0.121 0.022-0.24 0.075-0.349 0.056-0.087 0.153-0.143 0.262-0.143 0.013 0 0.025 0.001 0.038 0.002l-0.001-0c0.003-0 0.007-0 0.012-0 0.107 0 0.201 0.052 0.261 0.131l0.001 0.001c0.063 0.082 0.101 0.187 0.101 0.3 0 0.005-0 0.009-0 0.014v-0.001 0.202h0.605v-0.238c0-0.003 0-0.007 0-0.011 0-0.143-0.027-0.28-0.077-0.406l0.003 0.007c-0.048-0.128-0.117-0.237-0.205-0.329l0 0zM5.313 25.959c-0.186-0.158-0.429-0.255-0.694-0.257h-0c-0.124 0-0.248 0.023-0.364 0.066-0.252 0.090-0.451 0.276-0.557 0.512l-0.002 0.006c-0.062 0.142-0.092 0.297-0.089 0.452v2.239c-0.004 0.158 0.026 0.314 0.089 0.459 0.055 0.121 0.135 0.228 0.236 0.313 0.094 0.086 0.203 0.154 0.323 0.197 0.117 0.043 0.24 0.065 0.364 0.066 0.267-0.001 0.51-0.1 0.696-0.264l-0.001 0.001c0.097-0.087 0.176-0.194 0.23-0.313 0.063-0.144 0.093-0.301 0.089-0.459v-2.24c0-0.006 0-0.013 0-0.020 0-0.156-0.033-0.305-0.092-0.439l0.003 0.007c-0.057-0.128-0.135-0.237-0.23-0.327l-0-0zM5.028 28.977c0.001 0.010 0.002 0.023 0.002 0.035 0 0.114-0.047 0.216-0.123 0.289l-0 0c-0.077 0.065-0.178 0.105-0.287 0.105s-0.21-0.040-0.288-0.105l0.001 0.001c-0.076-0.073-0.123-0.176-0.123-0.289 0-0.012 0.001-0.025 0.002-0.037l-0 0.002v-2.24c-0.001-0.010-0.001-0.022-0.001-0.034 0-0.114 0.047-0.216 0.123-0.289l0-0c0.077-0.065 0.178-0.105 0.287-0.105s0.21 0.040 0.288 0.105l-0.001-0.001c0.076 0.073 0.123 0.175 0.123 0.289 0 0.012-0.001 0.025-0.002 0.037l0-0.002v2.241zM10.076 29.978v-4.241h-0.587l-0.771 2.245h-0.010l-0.777-2.244h-0.58v4.24h0.606v-2.579h0.011l0.593 1.823h0.302l0.598-1.823h0.010v2.579h0.606zM13.518 26.035c-0.093-0.105-0.211-0.185-0.342-0.232-0.124-0.042-0.267-0.066-0.416-0.066-0.008 0-0.016 0-0.024 0l0.001-0h-0.9v4.241h0.604v-1.657h0.311c0.189 0.009 0.376-0.031 0.545-0.116 0.139-0.078 0.251-0.188 0.33-0.32l0.002-0.004c0.070-0.113 0.117-0.238 0.139-0.369 0.021-0.133 0.033-0.287 0.033-0.444 0-0.013-0-0.027-0-0.040l0 0.002c0.006-0.203-0.014-0.407-0.059-0.606-0.043-0.153-0.12-0.284-0.223-0.39l0 0zM13.206 27.328c-0.003 0.081-0.023 0.157-0.057 0.224l0.001-0.003c-0.035 0.065-0.089 0.116-0.154 0.147l-0.002 0.001c-0.075 0.034-0.162 0.054-0.254 0.054-0.011 0-0.022-0-0.033-0.001l0.002 0h-0.276v-1.442h0.311c0.009-0 0.019-0.001 0.029-0.001 0.088 0 0.172 0.020 0.247 0.055l-0.004-0.002c0.062 0.036 0.111 0.090 0.141 0.154l0.001 0.002c0.033 0.074 0.051 0.155 0.053 0.236v0.282c0 0.099 0.006 0.201 0 0.291h-0.006zM16.38 25.737h-0.496l-0.934 4.241h0.604l0.177-0.911h0.824l0.178 0.911h0.605l-0.958-4.241zM15.822 28.489l0.297-1.537h0.011l0.295 1.537h-0.604zM20.284 28.292h-0.011l-0.912-2.555h-0.581v4.241h0.605v-2.55h0.012l0.923 2.55h0.568v-4.24h-0.604v2.555zM23.976 25.737l-0.486 1.687h-0.012l-0.486-1.687h-0.639l0.83 2.449v1.792h0.605v-1.792l0.83-2.448h-0.64zM0.001 31.176h0.291v0.817h0.198v-0.817h0.289v-0.167h-0.778v0.168zM2.449 31.007l-0.382 0.985h0.21l0.081-0.224h0.392l0.084 0.224h0.215l-0.392-0.985h-0.21zM2.418 31.603l0.134-0.365 0.134 0.365h-0.268zM4.869 31.629h0.228v0.127c-0.063 0.051-0.145 0.083-0.234 0.083h-0c-0.004 0-0.009 0-0.014 0-0.079 0-0.149-0.037-0.195-0.094l-0-0c-0.046-0.065-0.073-0.147-0.073-0.234 0-0.008 0-0.016 0.001-0.023l-0 0.001c0-0.219 0.095-0.329 0.283-0.329 0.006-0.001 0.014-0.001 0.021-0.001 0.097 0 0.179 0.067 0.201 0.157l0 0.001 0.195-0.038c-0.042-0.192-0.18-0.289-0.417-0.289-0.004-0-0.008-0-0.013-0-0.127 0-0.244 0.048-0.331 0.127l0-0c-0.088 0.087-0.143 0.208-0.143 0.342 0 0.013 0 0.026 0.002 0.038l-0-0.002c-0 0.007-0 0.015-0 0.023 0 0.132 0.048 0.254 0.127 0.347l-0.001-0.001c0.087 0.090 0.209 0.146 0.343 0.146 0.011 0 0.021-0 0.032-0.001l-0.001 0c0.005 0 0.010 0 0.016 0 0.155 0 0.296-0.060 0.402-0.158l-0 0v-0.388h-0.427v0.166zM7.341 31.007h-0.199v0.985h0.689v-0.167h-0.49v-0.817zM9.43 31.007h-0.199v0.985h0.199v-0.985zM11.473 31.665l-0.404-0.657h-0.193v0.985h0.185v-0.643l0.396 0.643h0.198v-0.985h-0.182v0.658zM13.32 31.558h0.491v-0.167h-0.491v-0.215h0.528v-0.168h-0.727v0.985h0.747v-0.167h-0.548v-0.267zM17.798 31.396h-0.388v-0.388h-0.197v0.984h0.197v-0.431h0.388v0.431h0.198v-0.985h-0.198v0.388zM19.656 31.558h0.492v-0.167h-0.492v-0.215h0.529v-0.168h-0.726v0.985h0.746v-0.167h-0.548v-0.267zM22.176 31.559c0.171-0.027 0.259-0.118 0.259-0.274 0.001-0.008 0.002-0.018 0.002-0.028 0-0.079-0.038-0.148-0.098-0.191l-0.001-0c-0.073-0.037-0.159-0.059-0.25-0.059-0.014 0-0.027 0-0.040 0.001l0.002-0h-0.417v0.984h0.198v-0.412h0.039c0.005-0 0.010-0 0.016-0 0.039 0 0.076 0.008 0.109 0.023l-0.002-0.001c0.029 0.018 0.053 0.042 0.070 0.072l0.215 0.313h0.236l-0.12-0.192c-0.054-0.096-0.128-0.175-0.215-0.235l-0.002-0.002zM21.976 31.422h-0.146v-0.247h0.156c0.012-0.001 0.027-0.002 0.042-0.002 0.057 0 0.112 0.009 0.163 0.026l-0.004-0.001c0.026 0.024 0.043 0.058 0.043 0.096 0 0.042-0.020 0.080-0.052 0.104l-0 0c-0.049 0.016-0.106 0.025-0.164 0.025-0.013 0-0.026-0-0.039-0.001l0.002 0zM24.076 31.558h0.49v-0.167h-0.49v-0.215h0.529v-0.168h-0.729v0.985h0.747v-0.167h-0.548v-0.267z"></path>
</symbol>
<symbol id="icon-group-2" viewBox="0 0 34 32">
<path  d="M5.643 31.315c0.012 0 0.024 0.003 0.035 0.008s0.021 0.011 0.030 0.018l-0-0 0.166 0.158c-0.13 0.129-0.289 0.232-0.468 0.302-0.184 0.069-0.397 0.109-0.62 0.109-0.015 0-0.030-0-0.045-0.001l0.002 0c-0.213 0.004-0.425-0.030-0.622-0.101-0.182-0.066-0.338-0.163-0.47-0.286l0.001 0.001c-0.128-0.121-0.231-0.268-0.301-0.432l-0.003-0.008c-0.067-0.162-0.106-0.35-0.106-0.548 0-0.006 0-0.012 0-0.018v0.001c-0-0.009-0-0.019-0-0.029 0-0.388 0.168-0.737 0.436-0.977l0.001-0.001c0.142-0.124 0.312-0.222 0.498-0.287 0.205-0.069 0.423-0.103 0.642-0.101 0.012-0 0.026-0 0.040-0 0.199 0 0.39 0.034 0.568 0.096l-0.012-0.004c0.165 0.062 0.316 0.149 0.447 0.255l-0.139 0.169c-0.010 0.012-0.022 0.022-0.035 0.030l-0.001 0c-0.014 0.008-0.031 0.013-0.048 0.013-0.003 0-0.005-0-0.008-0l0 0c-0.023-0.001-0.043-0.007-0.062-0.018l0.001 0-0.074-0.046-0.104-0.058c-0.095-0.046-0.205-0.081-0.321-0.1l-0.007-0.001c-0.069-0.012-0.149-0.018-0.23-0.018-0.006 0-0.013 0-0.019 0h0.001c-0.005-0-0.010-0-0.015-0-0.16 0-0.313 0.028-0.455 0.079l0.009-0.003c-0.14 0.049-0.26 0.122-0.363 0.214l0.001-0.001c-0.104 0.098-0.183 0.213-0.235 0.339-0.054 0.128-0.085 0.276-0.085 0.432 0 0.006 0 0.011 0 0.017v-0.001c-0 0.006-0 0.012-0 0.019 0 0.157 0.031 0.307 0.088 0.444l-0.003-0.008c0.051 0.125 0.13 0.239 0.231 0.338 0.095 0.091 0.213 0.164 0.345 0.21 0.136 0.049 0.281 0.073 0.427 0.072 0.085 0.001 0.17-0.004 0.254-0.014 0.211-0.022 0.4-0.106 0.55-0.234l-0.001 0.001c0.021-0.017 0.049-0.028 0.078-0.029h0zM10.441 30.517c0 0.005 0 0.011 0 0.017 0 0.197-0.041 0.384-0.116 0.553l0.003-0.009c-0.074 0.172-0.18 0.317-0.311 0.435l-0.001 0.001c-0.138 0.123-0.302 0.22-0.481 0.283l-0.010 0.003c-0.189 0.064-0.406 0.101-0.632 0.101s-0.443-0.037-0.646-0.105l0.014 0.004c-0.188-0.067-0.351-0.165-0.489-0.288l0.001 0.001c-0.133-0.12-0.24-0.267-0.313-0.432l-0.003-0.008c-0.071-0.166-0.112-0.359-0.112-0.562s0.041-0.396 0.116-0.572l-0.004 0.010c0.071-0.165 0.178-0.315 0.316-0.442 0.139-0.121 0.305-0.215 0.488-0.277 0.188-0.065 0.406-0.103 0.632-0.103s0.443 0.038 0.646 0.107l-0.014-0.004c0.184 0.065 0.351 0.162 0.49 0.286 0.137 0.126 0.244 0.274 0.314 0.435 0.077 0.181 0.115 0.373 0.112 0.565zM10.005 30.517c0-0.007 0-0.015 0-0.024 0-0.154-0.029-0.301-0.082-0.436l0.003 0.008c-0.101-0.26-0.308-0.459-0.566-0.548l-0.007-0.002c-0.137-0.047-0.295-0.074-0.459-0.074s-0.322 0.027-0.469 0.077l0.010-0.003c-0.136 0.049-0.254 0.121-0.352 0.214l0-0c-0.097 0.092-0.174 0.205-0.223 0.331l-0.002 0.006c-0.050 0.134-0.079 0.289-0.079 0.451s0.029 0.317 0.082 0.46l-0.003-0.009c0.101 0.261 0.309 0.46 0.569 0.547l0.007 0.002c0.296 0.097 0.622 0.097 0.918 0 0.133-0.046 0.253-0.119 0.35-0.211 0.1-0.098 0.175-0.213 0.222-0.338 0.056-0.145 0.082-0.298 0.079-0.451zM13.715 30.99l0.043 0.101c0.017-0.036 0.031-0.069 0.048-0.101 0.019-0.039 0.037-0.072 0.056-0.103l-0.002 0.004 1.061-1.677c0.021-0.029 0.040-0.047 0.061-0.053s0.047-0.009 0.073-0.009c0.005 0 0.010 0 0.015 0l-0.001-0h0.314v2.728h-0.372v-2.090c-0.001-0.014-0.002-0.031-0.002-0.047s0.001-0.033 0.002-0.049l-0 0.002-1.069 1.701c-0.015 0.026-0.036 0.047-0.062 0.061l-0.001 0c-0.026 0.014-0.057 0.023-0.090 0.023-0.001 0-0.001 0-0.002 0h-0.060c-0.001 0-0.001 0-0.002 0-0.033 0-0.063-0.008-0.090-0.023l0.001 0c-0.026-0.014-0.047-0.035-0.061-0.061l-0-0.001-1.099-1.711v2.189h-0.359v-2.722h0.313c0.004-0 0.009-0 0.015-0 0.026 0 0.051 0.003 0.075 0.010l-0.002-0c0.026 0.011 0.046 0.030 0.058 0.053l1.084 1.678c0.020 0.028 0.038 0.060 0.053 0.094l0.001 0.004zM17.71 30.855v1.021h-0.414v-2.723h0.926c0.175-0.003 0.349 0.018 0.517 0.059 0.134 0.034 0.259 0.091 0.366 0.17 0.089 0.070 0.159 0.16 0.205 0.262l0.002 0.004c0.050 0.111 0.073 0.23 0.071 0.349 0 0.005 0 0.011 0 0.017 0 0.246-0.117 0.465-0.299 0.603l-0.002 0.001c-0.107 0.082-0.232 0.143-0.368 0.18-0.14 0.040-0.301 0.064-0.468 0.064-0.012 0-0.023-0-0.035-0l-0.501-0.008zM17.71 30.562h0.503c0.109 0.002 0.218-0.013 0.322-0.041 0.089-0.026 0.166-0.066 0.234-0.119l-0.002 0.001c0.117-0.097 0.191-0.241 0.191-0.404 0-0.002 0-0.004-0-0.007v0c0.001-0.009 0.001-0.019 0.001-0.029 0-0.070-0.015-0.136-0.043-0.195l0.001 0.003c-0.035-0.074-0.084-0.136-0.144-0.185l-0.001-0.001c-0.139-0.093-0.31-0.149-0.493-0.149-0.023 0-0.046 0.001-0.069 0.003l0.003-0h-0.503v1.122zM23.294 31.88h-0.328c-0.002 0-0.004 0-0.006 0-0.032 0-0.061-0.009-0.086-0.026l0.001 0c-0.023-0.016-0.042-0.037-0.054-0.062l-0-0.001-0.282-0.658h-1.419l-0.293 0.658c-0.026 0.053-0.079 0.088-0.141 0.088-0.001 0-0.003-0-0.004-0h-0.329l1.246-2.728h0.432l1.263 2.728zM21.237 30.867h1.172l-0.494-1.11c-0.038-0.084-0.069-0.169-0.094-0.256l-0.048 0.142c-0.014 0.043-0.030 0.084-0.046 0.116l-0.49 1.108zM25.089 29.166c0.024 0.011 0.046 0.028 0.062 0.048l1.818 2.056v-2.117h0.372v2.728h-0.207c-0.001 0-0.003 0-0.005 0-0.029 0-0.057-0.006-0.082-0.017l0.001 0c-0.026-0.013-0.048-0.030-0.066-0.050l-0-0-1.816-2.054c0.001 0.014 0.001 0.030 0.001 0.047s-0.001 0.033-0.002 0.049l0-0.002v2.027h-0.372v-2.728h0.22c0.025 0 0.051 0.005 0.075 0.013zM30.402 30.795v1.083h-0.415v-1.082l-1.149-1.643h0.372c0.003-0 0.006-0 0.009-0 0.030 0 0.057 0.009 0.081 0.023l-0.001-0c0.023 0.018 0.042 0.039 0.056 0.062l0.718 1.060c0.029 0.046 0.054 0.087 0.075 0.126s0.038 0.078 0.053 0.115l0.053-0.117c0.021-0.043 0.044-0.084 0.071-0.124l0.709-1.067c0.015-0.022 0.033-0.041 0.053-0.058l0-0c0.023-0.017 0.051-0.027 0.082-0.027 0.003 0 0.006 0 0.008 0l-0-0h0.376l-1.15 1.65zM13.509 24.576c0.181 0.020 0.363 0.036 0.549 0.050 2.803-1.090 5.174-2.872 6.818-5.126s2.485-4.878 2.421-7.546l-3.090-2.683c0.629 2.84 0.335 5.775-0.848 8.478s-3.208 5.067-5.849 6.827z"></path>
<path  d="M12.407 24.451l0.083 0.015c2.822-1.755 4.973-4.203 6.176-7.031s1.402-5.904 0.571-8.83l-4.4-3.822c1.779 3.142 2.496 6.659 2.065 10.141-0.43 3.482-1.989 6.786-4.495 9.528zM27.328 15.106c-0.747 2.931-2.563 5.574-5.177 7.538-0.714 0.543-1.519 1.053-2.367 1.49l-0.092 0.043c2.129-0.543 4.085-1.504 5.718-2.808s2.901-2.917 3.703-4.714l-1.784-1.549z"></path>
<path  d="M26.628 14.674l-2.54-2.207c-0.049 2.517-0.872 4.976-2.385 7.122s-3.66 3.902-6.217 5.084h0.012c0.57 0 1.139-0.030 1.705-0.088 2.39-0.848 4.502-2.197 6.146-3.926s2.771-3.785 3.278-5.985zM12.774 3.17l-3.031-2.636c-2.709 0.91-5.039 2.509-6.686 4.588s-2.531 4.542-2.539 7.066c0.010 2.789 1.090 5.495 3.070 7.69 1.979 2.194 4.744 3.754 7.858 4.43 2.779-2.942 4.407-6.578 4.646-10.379s-0.924-7.57-3.319-10.758zM33.63 14.268c-0.011-3.308-1.528-6.478-4.221-8.818s-6.342-3.658-10.15-3.668c-0.008 0-0.018-0-0.028-0-1.831 0-3.59 0.305-5.231 0.867l0.114-0.034 18.556 16.122c0.605-1.313 0.958-2.849 0.96-4.468v-0.001z"></path>
</symbol>
<symbol id="icon-group-3" viewBox="0 0 65 32">
<path d="M10.018 9.982h-0.002c-1.827 0-3.309 1.316-3.309 2.941v0.002c0 1.624 1.481 2.941 3.309 2.941h0.002c1.827 0 3.309-1.317 3.309-2.941v-0.002c0-1.625-1.481-2.941-3.309-2.941zM34.441 9.043c-0.005-2.256-1.016-4.418-2.81-6.013s-4.227-2.493-6.765-2.499c-2.539 0.004-4.973 0.902-6.768 2.497s-2.807 3.758-2.812 6.014v12.439s19.153-1.896 19.156-12.437v-0.002zM0 25.564c0.005 1.57 0.709 3.073 1.957 4.184s2.941 1.735 4.706 1.74c1.766-0.005 3.457-0.63 4.706-1.74s1.952-2.613 1.957-4.182v-8.655s-13.327 1.321-13.327 8.654zM6.663 27.114c-0.345 0-0.682-0.091-0.969-0.261-0.279-0.164-0.5-0.402-0.638-0.686l-0.004-0.009c-0.084-0.174-0.132-0.377-0.132-0.592 0-0.107 0.012-0.212 0.035-0.312l-0.002 0.009c0.067-0.301 0.233-0.578 0.477-0.794 0.243-0.214 0.547-0.364 0.882-0.423l0.011-0.002c0.103-0.019 0.221-0.030 0.341-0.030 0.239 0 0.469 0.043 0.681 0.122l-0.013-0.004c0.319 0.117 0.592 0.316 0.783 0.572s0.294 0.555 0.294 0.861c0.001 0.204-0.043 0.407-0.131 0.596-0.094 0.198-0.221 0.366-0.376 0.503l-0.002 0.001c-0.162 0.145-0.354 0.259-0.567 0.338-0.199 0.075-0.428 0.119-0.668 0.119-0 0-0.001 0-0.001 0h0v-0.006zM20.132 26.26h-1.286v1.328h-0.67v-3.252h2.117v0.543h-1.447v0.84h1.286v0.54zM23.351 26.037c0 0.32-0.056 0.601-0.169 0.841s-0.276 0.427-0.488 0.559c-0.199 0.124-0.44 0.197-0.698 0.197-0.008 0-0.017-0-0.025-0l0.001 0c-0.27 0-0.511-0.065-0.722-0.194-0.213-0.134-0.382-0.322-0.487-0.546l-0.003-0.008c-0.112-0.236-0.177-0.512-0.177-0.804 0-0.009 0-0.019 0-0.028l-0 0.001v-0.16c0-0.32 0.058-0.602 0.172-0.844 0.116-0.244 0.279-0.431 0.489-0.56 0.211-0.131 0.452-0.197 0.723-0.197s0.511 0.066 0.721 0.197c0.211 0.13 0.374 0.316 0.489 0.56 0.116 0.242 0.174 0.523 0.174 0.841v0.145zM22.672 25.889c0-0.341-0.061-0.6-0.183-0.777-0.109-0.161-0.29-0.266-0.497-0.266-0.009 0-0.018 0-0.028 0.001l0.001-0c-0.008-0-0.016-0.001-0.025-0.001-0.205 0-0.387 0.104-0.494 0.262l-0.001 0.002c-0.122 0.174-0.184 0.43-0.185 0.768v0.159c0 0.331 0.061 0.589 0.183 0.772s0.297 0.274 0.527 0.274c0.008 0 0.017 0.001 0.026 0.001 0.204 0 0.384-0.104 0.49-0.261l0.001-0.002c0.12-0.177 0.181-0.434 0.183-0.773v-0.159zM25.522 26.735c0-0.006 0.001-0.012 0.001-0.019 0-0.11-0.052-0.208-0.133-0.27l-0.001-0.001c-0.089-0.069-0.25-0.14-0.482-0.214-0.214-0.067-0.397-0.142-0.57-0.232l0.019 0.009c-0.37-0.2-0.554-0.469-0.554-0.806 0-0.175 0.049-0.332 0.147-0.469 0.1-0.139 0.242-0.246 0.427-0.324 0.186-0.077 0.395-0.116 0.625-0.116 0.232 0 0.439 0.042 0.621 0.127 0.181 0.084 0.322 0.201 0.421 0.355 0.101 0.152 0.152 0.328 0.152 0.522h-0.671c0-0.149-0.046-0.264-0.14-0.346-0.094-0.084-0.226-0.125-0.395-0.125-0.164 0-0.291 0.035-0.382 0.105-0.083 0.060-0.137 0.156-0.137 0.265 0 0.003 0 0.005 0 0.008v-0c0 0.106 0.053 0.194 0.159 0.266 0.107 0.071 0.264 0.138 0.471 0.2 0.381 0.114 0.658 0.257 0.833 0.427s0.261 0.381 0.261 0.634c0 0.281-0.107 0.503-0.32 0.663s-0.498 0.239-0.859 0.239c-0.25 0-0.478-0.046-0.684-0.137-0.193-0.082-0.352-0.211-0.469-0.373l-0.002-0.003c-0.1-0.15-0.16-0.335-0.16-0.533 0-0.007 0-0.014 0-0.022l-0 0.001h0.671c0 0.358 0.214 0.538 0.643 0.538 0.159 0 0.283-0.032 0.373-0.096 0.081-0.058 0.134-0.153 0.134-0.259 0-0.004-0-0.009-0-0.013l0 0.001zM29.097 24.88h-0.995v2.708h-0.671v-2.708h-0.981v-0.543h2.647v0.543zM31.437 26.179h-1.286v0.871h1.509v0.538h-2.179v-3.252h2.175v0.543h-1.505v0.775h1.286v0.524zM33.256 26.398h-0.533v1.19h-0.67v-3.252h1.208c0.384 0 0.681 0.086 0.889 0.257s0.312 0.413 0.312 0.725c0 0.222-0.048 0.408-0.145 0.556-0.108 0.156-0.255 0.278-0.429 0.35l-0.006 0.002 0.703 1.328v0.030h-0.719l-0.61-1.189zM32.723 25.856h0.541c0.168 0 0.297-0.042 0.39-0.127 0.086-0.084 0.139-0.201 0.139-0.33 0-0.009-0-0.017-0.001-0.026l0 0.001c0-0.154-0.043-0.274-0.131-0.362s-0.219-0.132-0.4-0.132h-0.538v0.975zM36.782 26.443v1.145h-0.67v-3.252h1.268c0.244 0 0.459 0.045 0.643 0.134 0.186 0.089 0.329 0.216 0.429 0.382 0.099 0.164 0.149 0.351 0.149 0.56 0 0.319-0.11 0.57-0.328 0.754-0.218 0.183-0.519 0.275-0.905 0.275h-0.587zM36.782 25.901h0.598c0.178 0 0.312-0.042 0.404-0.125 0.094-0.084 0.141-0.203 0.141-0.357 0-0.007 0.001-0.016 0.001-0.024 0-0.14-0.053-0.267-0.141-0.363l0 0c-0.094-0.098-0.223-0.149-0.389-0.152h-0.614v1.021zM41.019 26.179h-1.286v0.871h1.509v0.538h-2.179v-3.252h2.175v0.543h-1.505v0.775h1.286v0.524zM44.127 24.88h-0.996v2.708h-0.67v-2.708h-0.982v-0.543h2.648v0.543zM46.466 26.179h-1.285v0.871h1.509v0.538h-2.179v-3.252h2.175v0.543h-1.504v0.775h1.286v0.524zM48.286 26.398h-0.533v1.19h-0.671v-3.252h1.209c0.384 0 0.68 0.086 0.889 0.257s0.312 0.413 0.312 0.725c0 0.222-0.049 0.408-0.145 0.556-0.108 0.156-0.256 0.278-0.429 0.35l-0.006 0.002 0.703 1.328v0.030h-0.719l-0.61-1.189zM47.753 25.856h0.54c0.168 0 0.298-0.042 0.39-0.127 0.086-0.084 0.139-0.201 0.139-0.331 0-0.009-0-0.017-0.001-0.025l0 0.001c0-0.154-0.043-0.274-0.132-0.362-0.086-0.088-0.219-0.132-0.399-0.132h-0.538v0.975zM51.689 26.736c0-0.006 0.001-0.012 0.001-0.019 0-0.11-0.052-0.208-0.134-0.271l-0.001-0.001c-0.089-0.069-0.25-0.14-0.482-0.214-0.214-0.067-0.397-0.142-0.57-0.232l0.019 0.009c-0.37-0.2-0.554-0.469-0.554-0.806 0-0.175 0.050-0.332 0.147-0.469 0.1-0.139 0.242-0.246 0.427-0.324 0.186-0.077 0.395-0.116 0.625-0.116 0.232 0 0.439 0.042 0.621 0.127 0.181 0.084 0.322 0.201 0.421 0.355 0.101 0.152 0.152 0.328 0.152 0.522h-0.671c0-0.149-0.046-0.264-0.14-0.346-0.094-0.084-0.226-0.125-0.395-0.125-0.164 0-0.291 0.035-0.382 0.105-0.083 0.060-0.137 0.156-0.137 0.265 0 0.002 0 0.005 0 0.007v-0c0 0.106 0.053 0.194 0.159 0.266s0.264 0.138 0.471 0.2c0.381 0.114 0.658 0.257 0.833 0.427s0.261 0.381 0.261 0.634c0 0.281-0.107 0.503-0.32 0.663s-0.499 0.239-0.859 0.239c-0.25 0-0.478-0.046-0.684-0.137-0.193-0.082-0.352-0.211-0.469-0.373l-0.002-0.003c-0.1-0.15-0.16-0.335-0.16-0.533 0-0.007 0-0.014 0-0.022l-0 0.001h0.671c0 0.358 0.214 0.538 0.643 0.538 0.159 0 0.283-0.032 0.373-0.096 0.082-0.058 0.134-0.153 0.134-0.26 0-0.004-0-0.009-0-0.013l0 0.001z"></path>
</symbol>
<symbol id="icon-group-4" viewBox="0 0 43 32">
<path  d="M3.239 26.375c0.166 0.188 0.254 0.424 0.25 0.665 0.001 0.015 0.001 0.033 0.001 0.050 0 0.149-0.033 0.29-0.093 0.416l0.003-0.006c-0.072 0.152-0.172 0.279-0.296 0.378l-0.002 0.002c-0.282 0.194-0.631 0.31-1.007 0.31-0.041 0-0.082-0.001-0.123-0.004l0.006 0h-1.977v-4.214h1.936c0.034-0.002 0.074-0.004 0.115-0.004 0.356 0 0.688 0.106 0.965 0.287l-0.007-0.004c0.125 0.097 0.225 0.218 0.289 0.354 0.065 0.138 0.095 0.286 0.086 0.436 0.011 0.232-0.068 0.461-0.225 0.644-0.15 0.168-0.358 0.283-0.59 0.33 0.262 0.044 0.499 0.172 0.667 0.361zM0.92 25.739h0.828c0.188 0.012 0.374-0.037 0.526-0.14 0.060-0.050 0.108-0.113 0.14-0.184l0.001-0.003c0.024-0.054 0.038-0.118 0.038-0.185 0-0.014-0.001-0.028-0.002-0.042l0 0.002c0.001-0.011 0.001-0.023 0.001-0.036 0-0.068-0.014-0.133-0.040-0.191l0.001 0.003c-0.033-0.075-0.079-0.137-0.138-0.187l-0.001-0.001c-0.134-0.091-0.298-0.145-0.476-0.145-0.023 0-0.046 0.001-0.069 0.003l0.003-0h-0.815v1.106zM2.355 27.356c0.065-0.051 0.116-0.116 0.151-0.19l0.001-0.003c0.028-0.059 0.044-0.128 0.044-0.202 0-0.012-0-0.023-0.001-0.035l0 0.002c0.001-0.009 0.001-0.020 0.001-0.031 0-0.075-0.017-0.147-0.047-0.21l0.001 0.003c-0.037-0.078-0.090-0.143-0.154-0.193l-0.001-0.001c-0.142-0.097-0.318-0.154-0.507-0.154-0.019 0-0.039 0.001-0.058 0.002l0.003-0h-0.868v1.16h0.88c0.197 0.010 0.394-0.041 0.556-0.146zM7.197 28.188l-1.076-1.648h-0.405v1.648h-0.927v-4.215h1.755c0.037-0.003 0.081-0.004 0.125-0.004 0.413 0 0.794 0.136 1.1 0.366l-0.005-0.003c0.245 0.229 0.394 0.53 0.417 0.85 0.002 0.026 0.003 0.057 0.003 0.088 0 0.307-0.109 0.589-0.291 0.808l0.002-0.002c-0.218 0.224-0.506 0.378-0.829 0.427l-0.008 0.001 1.147 1.684h-1.008zM5.715 25.966h0.758c0.526 0 0.79-0.212 0.79-0.638 0.001-0.010 0.001-0.022 0.001-0.034 0-0.080-0.016-0.156-0.045-0.225l0.001 0.004c-0.036-0.086-0.087-0.159-0.15-0.218l-0-0c-0.144-0.109-0.326-0.174-0.523-0.174-0.026 0-0.051 0.001-0.077 0.003l0.003-0h-0.767l0.009 1.283zM12.262 27.339h-1.846l-0.326 0.849h-0.972l1.695-4.168h1.051l1.689 4.168h-0.971l-0.319-0.848zM12.015 26.701l-0.675-1.779-0.675 1.779h1.349zM18.602 28.188h-0.919l-2.063-2.866v2.866h-0.918v-4.216h0.918l2.063 2.883v-2.883h0.919v4.216zM23.852 27.179c-0.191 0.318-0.48 0.577-0.833 0.744-0.358 0.168-0.777 0.267-1.219 0.267-0.026 0-0.053-0-0.079-0.001l0.004 0h-1.637v-4.215h1.637c0.023-0.001 0.050-0.001 0.077-0.001 0.441 0 0.859 0.096 1.235 0.267l-0.019-0.008c0.352 0.163 0.642 0.419 0.832 0.735 0.189 0.343 0.288 0.722 0.288 1.106s-0.099 0.763-0.288 1.106zM22.8 27.078c0.25-0.261 0.404-0.616 0.406-1.006v-0c0-0.369-0.144-0.726-0.406-1.006-0.285-0.226-0.65-0.362-1.047-0.362-0.037 0-0.074 0.001-0.11 0.004l0.005-0h-0.639v2.729h0.639c0.032 0.002 0.069 0.003 0.106 0.003 0.396 0 0.761-0.136 1.050-0.364l-0.004 0.003zM12.838 0.525s11.873 4.104 11.621 10.043v10.045s-11.864-4.106-11.617-10.045l-0.004-10.043zM35.037 18.262c2.243-1.413 4.836-2.288 7.544-2.545v-3.146c-3.12 1.102-5.767 3.098-7.544 5.691z"></path>
<path  d="M33.69 19.209c1.835-3.384 5.017-5.995 8.891-7.297v-9.061s-16.909 5.846-16.552 14.304v14.302s0.754-0.261 1.939-0.752c0-0.457 0-0.918 0.054-1.382 0.349-3.926 2.388-7.564 5.667-10.115z"></path>
<path  d="M32.082 24.522c0.089-0.992 0.287-1.973 0.592-2.928-2.043 2.203-3.279 4.936-3.536 7.816-0.025 0.272-0.039 0.543-0.045 0.824 1.41-0.617 2.478-1.142 3.524-1.703l-0.273 0.133c-0.3-1.362-0.388-2.757-0.263-4.142zM32.754 24.574c-0.033 0.348-0.052 0.752-0.052 1.161 0 0.917 0.095 1.811 0.276 2.674l-0.015-0.084c4.62-2.531 9.811-6.442 9.61-11.168v-0.412c-3.301 0.338-6.388 1.659-8.79 3.76-0.53 1.19-0.895 2.571-1.026 4.019l-0.004 0.051z"></path>
</symbol>
<symbol id="icon-group-5" viewBox="0 0 67 32">
<path  d="M33.73 15.223c-0.271-0.35-0.435-0.795-0.435-1.278 0-0.048 0.002-0.095 0.005-0.142l-0 0.006v-2.051c0-0.628 0.142-1.106 0.428-1.433 0.285-0.327 0.775-0.489 1.469-0.488 0.652 0 1.116 0.139 1.389 0.418 0.299 0.355 0.445 0.789 0.411 1.226v0.482h-1.166v-0.489c0.004-0.159-0.007-0.319-0.034-0.477-0.020-0.116-0.081-0.214-0.166-0.283l-0.001-0.001c-0.105-0.070-0.234-0.112-0.373-0.112-0.018 0-0.035 0.001-0.052 0.002l0.002-0c-0.015-0.001-0.033-0.002-0.050-0.002-0.147 0-0.283 0.044-0.397 0.12l0.003-0.002c-0.096 0.078-0.166 0.186-0.193 0.309l-0.001 0.004c-0.030 0.141-0.047 0.302-0.047 0.467 0 0.014 0 0.028 0 0.042l-0-0.002v2.489c-0.019 0.24 0.033 0.48 0.149 0.698 0.061 0.075 0.139 0.133 0.23 0.168l0.004 0.001c0.068 0.027 0.148 0.043 0.231 0.043 0.025 0 0.050-0.001 0.074-0.004l-0.003 0c0.015 0.001 0.032 0.002 0.049 0.002 0.136 0 0.262-0.043 0.365-0.116l-0.002 0.001c0.090-0.075 0.153-0.18 0.174-0.299l0-0.003c0.027-0.165 0.040-0.332 0.036-0.499v-0.505h1.167v0.461c0.003 0.036 0.004 0.079 0.004 0.122 0 0.443-0.153 0.85-0.41 1.171l0.003-0.004c-0.268 0.304-0.725 0.457-1.397 0.457s-1.179-0.163-1.467-0.501zM38.589 15.245c-0.295-0.32-0.442-0.784-0.442-1.4v-2.157c0-0.61 0.147-1.070 0.442-1.383s0.787-0.469 1.479-0.467c0.686 0 1.176 0.156 1.472 0.467 0.294 0.313 0.445 0.774 0.445 1.383v2.156c0 0.61-0.149 1.077-0.45 1.398s-0.787 0.482-1.467 0.482-1.181-0.163-1.479-0.479zM40.611 14.727c0.106-0.199 0.154-0.419 0.14-0.638v-2.642c0.001-0.021 0.002-0.046 0.002-0.071 0-0.203-0.052-0.394-0.142-0.561l0.003 0.006c-0.062-0.076-0.142-0.135-0.234-0.17l-0.004-0.001c-0.068-0.027-0.146-0.042-0.229-0.042-0.028 0-0.056 0.002-0.083 0.005l0.003-0c-0.024-0.003-0.051-0.005-0.079-0.005-0.083 0-0.162 0.015-0.234 0.043l0.004-0.002c-0.096 0.036-0.177 0.096-0.239 0.171l-0.001 0.001c-0.107 0.195-0.154 0.41-0.14 0.626v2.653c-0.014 0.22 0.033 0.439 0.14 0.639 0.068 0.067 0.152 0.121 0.246 0.158 0.089 0.036 0.192 0.056 0.3 0.056s0.211-0.021 0.305-0.058l-0.006 0.002c0.095-0.037 0.178-0.091 0.246-0.158v-0.013zM43.388 9.9h1.256l0.944 3.979 0.967-3.979h1.222l0.124 5.744h-0.904l-0.097-3.992-0.932 3.992h-0.725l-0.966-4.007-0.090 4.007h-0.913l0.114-5.744zM49.31 9.9h1.957c1.127 0 1.691 0.543 1.691 1.631 0 1.041-0.594 1.562-1.781 1.56h-0.666v2.553h-1.208l0.007-5.745zM50.982 12.355c0.12 0.014 0.24 0.004 0.356-0.028 0.114-0.031 0.22-0.083 0.309-0.154 0.139-0.194 0.2-0.422 0.174-0.649 0.001-0.019 0.001-0.041 0.001-0.063 0-0.163-0.022-0.321-0.062-0.471l0.003 0.013c-0.019-0.061-0.050-0.114-0.089-0.158l0 0c-0.042-0.047-0.093-0.086-0.149-0.114l-0.003-0.001c-0.141-0.059-0.304-0.094-0.476-0.094-0.022 0-0.044 0.001-0.066 0.002l0.003-0h-0.469v1.717h0.469zM54.701 9.9h1.297l1.331 5.744h-1.127l-0.263-1.324h-1.157l-0.27 1.324h-1.143l1.331-5.744zM55.809 13.655l-0.452-2.411-0.452 2.411h0.903zM58.404 9.9h0.846l1.618 3.277v-3.277h1.003v5.744h-0.804l-1.629-3.421v3.421h-1.036l0.002-5.744zM64.22 13.454l-1.346-3.545h1.134l0.821 2.278 0.77-2.278h1.11l-1.329 3.546v2.19h-1.159v-2.191zM35.596 18.156v0.3h-0.986v2.334h-0.413v-2.334h-0.991v-0.3h2.39zM38.686 20.791h-0.319c-0.003 0-0.006 0-0.009 0-0.030 0-0.058-0.009-0.081-0.025l0 0c-0.023-0.015-0.041-0.035-0.052-0.060l-0-0.001-0.285-0.626h-1.368l-0.285 0.626c-0.009 0.028-0.024 0.052-0.044 0.071l-0 0c-0.023 0.016-0.052 0.025-0.082 0.025-0.003 0-0.005-0-0.008-0h-0.318l1.208-2.634h0.42l1.223 2.624zM36.685 19.813h1.14l-0.484-1.073c-0.031-0.067-0.061-0.15-0.086-0.235l-0.003-0.014c-0.017 0.050-0.031 0.098-0.046 0.14l-0.044 0.11-0.478 1.070zM40.768 20.532c0.076 0.004 0.151 0.004 0.228 0 0.065-0.006 0.129-0.016 0.193-0.031 0.059-0.012 0.117-0.028 0.174-0.048 0.053-0.018 0.107-0.042 0.161-0.065v-0.592h-0.483c-0.001 0-0.003 0-0.004 0-0.023 0-0.044-0.008-0.061-0.022l0 0c-0.008-0.006-0.014-0.013-0.018-0.021l-0-0c-0.004-0.007-0.006-0.015-0.006-0.024 0-0.001 0-0.002 0-0.003v0-0.202h0.937v1.010c-0.147 0.091-0.316 0.165-0.496 0.211l-0.013 0.003c-0.1 0.026-0.2 0.043-0.302 0.055-0.117 0.011-0.235 0.016-0.353 0.016-0.005 0-0.010 0-0.015 0-0.212 0-0.416-0.036-0.606-0.102l0.013 0.004c-0.186-0.065-0.347-0.158-0.486-0.277l0.002 0.002c-0.129-0.114-0.234-0.253-0.308-0.409l-0.003-0.008c-0.070-0.156-0.111-0.338-0.111-0.529 0-0.006 0-0.012 0-0.019v0.001c-0-0.005-0-0.010-0-0.016 0-0.193 0.040-0.377 0.112-0.543l-0.003 0.009c0.069-0.156 0.176-0.299 0.312-0.418 0.138-0.119 0.302-0.211 0.484-0.273 0.206-0.068 0.427-0.101 0.647-0.098 0.112 0 0.225 0.007 0.336 0.023 0.098 0.014 0.195 0.036 0.287 0.067 0.085 0.027 0.166 0.063 0.242 0.105 0.074 0.041 0.144 0.087 0.211 0.137l-0.116 0.163c-0.010 0.015-0.023 0.027-0.039 0.035l-0.001 0c-0.016 0.009-0.035 0.014-0.055 0.014h-0c-0.028-0.001-0.053-0.008-0.075-0.021l0.001 0c-0.049-0.023-0.088-0.044-0.126-0.066l0.007 0.004c-0.045-0.025-0.099-0.049-0.154-0.069l-0.008-0.002c-0.062-0.022-0.136-0.042-0.213-0.057l-0.009-0.001c-0.087-0.015-0.188-0.023-0.29-0.023-0.006 0-0.011 0-0.017 0h0.001c-0.004-0-0.010-0-0.015-0-0.162 0-0.317 0.027-0.462 0.076l0.010-0.003c-0.134 0.046-0.256 0.117-0.356 0.208-0.096 0.090-0.172 0.199-0.222 0.321l-0.002 0.006c-0.051 0.13-0.081 0.281-0.081 0.439s0.030 0.309 0.084 0.448l-0.003-0.008c0.053 0.124 0.135 0.237 0.242 0.332 0.099 0.090 0.219 0.161 0.352 0.208 0.154 0.046 0.316 0.063 0.479 0.052zM44.62 20.491h1.319v0.3h-1.722v-2.634h0.413l-0.009 2.334zM47.311 20.791h-0.413v-2.634h0.413v2.634zM48.848 18.169c0.025 0.012 0.046 0.028 0.063 0.047l0 0 1.766 1.986c-0.001-0.014-0.002-0.030-0.002-0.047s0.001-0.033 0.002-0.049l-0 0.002v-1.963h0.36v2.646h-0.208c-0.004 0-0.009 0-0.014 0-0.027 0-0.054-0.006-0.077-0.016l0.001 0c-0.025-0.013-0.047-0.030-0.065-0.050l-0-0-1.764-1.984v2.048h-0.346v-2.634h0.215c0.023 0 0.047 0.004 0.068 0.012zM54.079 18.156v0.289h-1.464v0.87h1.186v0.279h-1.186v0.9h1.464v0.289h-1.889v-2.628h1.889zM10.784 1.886l18.346 4.497v15.759l-18.346-4.495v-15.762zM9.607 0.542v17.871l20.697 5.075v-17.869l-20.696-5.077z"></path>
<path  d="M20.7 31.784l-20.7-5.080v-17.868l20.7 5.077v17.87z"></path>
<path  d="M9.95 1.684l18.106 4.441-7.7 6.65-18.11-4.443 7.703-6.649zM9.607 0.543l-9.607 8.293 20.7 5.078 9.604-8.295-20.697-5.076zM21.864 30.779l8.44-7.289-8.441-2.070v9.36z"></path>
</symbol>
<symbol id="icon-group" viewBox="0 0 28 32">
<path  d="M4.086 0l4.772 4.518-8.858-0.005v21.919h23.153v-8.381l4.767 4.513v-22.563h-23.834zM22.943 17.52l-13.531-12.809h13.531v12.809zM18.743 23.224h-15.079v-14.74h1.066v13.743h14.013v0.998zM7.225 29.35l-0.557 1.147-0.557-1.147h-0.467l0.813 1.529v0.891h0.422v-0.891l0.811-1.529h-0.465zM7.925 31.77l0.196-0.564h0.938l0.197 0.564h0.439l-0.916-2.421h-0.378l-0.914 2.421h0.437zM8.59 29.864l0.351 1.004h-0.701l0.351-1.004zM10.808 30.81c-0.057 0.085-0.091 0.19-0.091 0.303 0 0.001 0 0.003 0 0.004v-0c0 0.204 0.072 0.37 0.214 0.497s0.336 0.19 0.575 0.19c0.239 0 0.445-0.065 0.618-0.195l0.136 0.161h0.469l-0.355-0.421c0.14-0.191 0.209-0.435 0.209-0.733h-0.351c0 0.163-0.034 0.311-0.101 0.444l-0.468-0.552 0.165-0.12c0.1-0.068 0.184-0.152 0.249-0.249l0.002-0.003c0.048-0.079 0.076-0.174 0.076-0.275 0-0.001 0-0.003-0-0.004v0c0-0.003 0-0.006 0-0.009 0-0.149-0.065-0.283-0.169-0.374l-0.001-0c-0.108-0.097-0.251-0.157-0.408-0.157-0.008 0-0.017 0-0.025 0l0.001-0c-0.195 0-0.35 0.056-0.465 0.166s-0.173 0.259-0.173 0.449c0 0.078 0.018 0.157 0.054 0.241 0.038 0.083 0.104 0.184 0.197 0.302-0.179 0.129-0.3 0.24-0.36 0.334zM11.9 31.345c-0.104 0.084-0.237 0.135-0.382 0.136h-0c-0.006 0-0.013 0-0.020 0-0.104 0-0.199-0.040-0.27-0.106l0 0c-0.067-0.066-0.109-0.158-0.109-0.259 0-0.005 0-0.009 0-0.014l-0 0.001c0-0.129 0.067-0.245 0.2-0.346l0.052-0.037 0.528 0.624zM11.466 30.272c-0.114-0.141-0.172-0.257-0.172-0.351 0-0.081 0.024-0.148 0.070-0.201 0.044-0.049 0.107-0.081 0.178-0.081 0.004 0 0.007 0 0.010 0l-0.001-0c0.003-0 0.006-0 0.009-0 0.067 0 0.127 0.026 0.173 0.068l-0-0c0.048 0.045 0.072 0.099 0.072 0.161 0 0.003 0 0.006 0 0.009 0 0.090-0.040 0.171-0.103 0.226l-0 0-0.052 0.041-0.185 0.127zM15.406 31.587c0.166-0.145 0.261-0.347 0.286-0.605h-0.419c-0.022 0.173-0.075 0.296-0.158 0.37s-0.208 0.112-0.373 0.112c-0.18 0-0.318-0.069-0.412-0.206s-0.14-0.337-0.14-0.599v-0.214c0.003-0.259 0.052-0.454 0.15-0.587 0.099-0.134 0.24-0.201 0.422-0.201 0.157 0 0.276 0.039 0.357 0.116s0.133 0.202 0.153 0.376h0.419c-0.027-0.265-0.121-0.47-0.285-0.615s-0.378-0.218-0.645-0.218c-0.198 0-0.373 0.048-0.525 0.142-0.152 0.097-0.271 0.234-0.345 0.396l-0.002 0.006c-0.077 0.169-0.122 0.367-0.122 0.576 0 0.010 0 0.020 0 0.030l-0-0.001v0.226c0.003 0.223 0.045 0.418 0.125 0.587s0.193 0.298 0.339 0.39c0.148 0.091 0.318 0.136 0.511 0.136 0.276 0 0.497-0.072 0.663-0.216zM17.878 31.248c0.082-0.18 0.123-0.388 0.123-0.625v-0.134c0-0.007 0-0.016 0-0.024 0-0.216-0.047-0.421-0.131-0.605l0.004 0.009c-0.077-0.171-0.199-0.31-0.35-0.406l-0.004-0.002c-0.152-0.095-0.326-0.143-0.524-0.143s-0.372 0.048-0.525 0.144c-0.152 0.095-0.27 0.233-0.354 0.414-0.079 0.175-0.125 0.38-0.125 0.595 0 0.011 0 0.021 0 0.032l-0-0.002v0.136c0.001 0.232 0.043 0.436 0.126 0.613 0.084 0.178 0.203 0.315 0.356 0.411 0.154 0.095 0.329 0.143 0.525 0.143 0.199 0 0.374-0.048 0.526-0.143 0.153-0.097 0.27-0.234 0.352-0.413zM17.428 29.879c0.102 0.143 0.153 0.349 0.153 0.618v0.126c0 0.272-0.050 0.48-0.151 0.622-0.099 0.142-0.242 0.213-0.429 0.213-0.005 0-0.011 0-0.017 0-0.171 0-0.323-0.086-0.413-0.217l-0.001-0.002c-0.104-0.145-0.155-0.351-0.155-0.617v-0.14c0.002-0.26 0.054-0.462 0.156-0.603 0.091-0.131 0.24-0.215 0.41-0.215 0.006 0 0.012 0 0.018 0l-0.001-0c0.187 0 0.33 0.072 0.431 0.215z"></path>
</symbol>
<symbol id="icon-instagram-2" viewBox="0 0 29 32">
<path d="M29.078 10.374c-0.067-1.623-0.317-2.739-0.675-3.706-0.382-1.055-0.956-1.958-1.686-2.709l0.002 0.002c-0.704-0.753-1.564-1.351-2.529-1.744l-0.048-0.017c-0.927-0.376-1.984-0.638-3.531-0.709-1.557-0.079-2.052-0.096-6.006-0.096-3.952 0-4.447 0.017-6 0.089-1.546 0.073-2.61 0.335-3.531 0.71-1.016 0.409-1.878 1.009-2.578 1.761l-0.004 0.004c-0.723 0.749-1.294 1.65-1.66 2.65l-0.017 0.053c-0.36 0.972-0.608 2.081-0.677 3.704-0.074 1.635-0.092 2.154-0.092 6.301 0 4.146 0.017 4.665 0.086 6.294 0.068 1.623 0.319 2.738 0.677 3.704 0.384 1.054 0.957 1.957 1.685 2.709l-0.002-0.002c0.728 0.777 1.61 1.38 2.576 1.761 0.927 0.376 1.985 0.639 3.531 0.71 1.553 0.071 2.048 0.089 6 0.089 3.953 0 4.448-0.017 6-0.089 1.547-0.073 2.61-0.335 3.531-0.71 1.956-0.793 3.504-2.416 4.26-4.469 0.358-0.972 0.608-2.081 0.677-3.704 0.068-1.63 0.084-2.148 0.084-6.294 0-4.147-0.006-4.667-0.073-6.294zM26.458 22.842c-0.064 1.492-0.303 2.297-0.501 2.834-0.485 1.32-1.476 2.356-2.733 2.887l-0.032 0.012c-0.509 0.208-1.284 0.459-2.7 0.524-1.536 0.073-1.996 0.090-5.881 0.090-3.883 0-4.351-0.017-5.881-0.090-1.422-0.066-2.189-0.316-2.702-0.524-0.659-0.26-1.217-0.648-1.668-1.137l-0.003-0.003c-0.472-0.484-0.843-1.070-1.077-1.721l-0.010-0.033c-0.198-0.537-0.437-1.348-0.499-2.834-0.068-1.611-0.086-2.095-0.086-6.169 0-4.076 0.017-4.565 0.086-6.169 0.063-1.492 0.301-2.297 0.499-2.834 0.233-0.662 0.604-1.265 1.092-1.754 0.455-0.491 1.014-0.879 1.644-1.129l0.030-0.011c0.509-0.208 1.284-0.46 2.7-0.524 1.536-0.073 1.997-0.090 5.881-0.090 3.889 0 4.351 0.017 5.881 0.089 1.422 0.066 2.189 0.317 2.702 0.525 0.63 0.245 1.205 0.632 1.671 1.14 0.483 0.495 0.853 1.092 1.087 1.754 0.198 0.537 0.437 1.348 0.499 2.834 0.068 1.61 0.086 2.093 0.086 6.169s-0.017 4.552-0.086 6.163z"></path>
<path  d="M14.605 8.821c-4.128 0-7.477 3.517-7.477 7.846 0 4.332 3.351 7.846 7.479 7.846 4.129 0 7.479-3.514 7.479-7.846 0-4.33-3.349-7.846-7.479-7.846zM14.605 21.757c-2.678 0-4.851-2.279-4.851-5.089 0-2.811 2.173-5.090 4.851-5.090s4.851 2.279 4.851 5.090c0 2.809-2.173 5.089-4.851 5.089zM24.126 8.512c0 1.012-0.783 1.831-1.747 1.831s-1.747-0.819-1.747-1.831c0-1.012 0.782-1.833 1.747-1.833 0.964 0 1.747 0.821 1.747 1.833z"></path>
</symbol>
<symbol id="icon-linkedin-1" viewBox="0 0 29 32">
<path  d="M29.1 31.935v-0.003h0.007v-11.199c0-5.48-1.124-9.701-7.23-9.701-2.936 0-4.905 1.69-5.71 3.293h-0.084v-2.78h-5.79v20.388h6.029v-10.096c0-2.658 0.48-5.228 3.619-5.228 3.092 0 3.138 3.033 3.138 5.4v9.927h6.022zM0.476 11.546h6.036v20.388h-6.036v-20.388zM3.492 1.394c-1.93 0-3.496 1.643-3.496 3.668 0 2.022 1.566 3.7 3.496 3.7 1.929 0 3.495-1.678 3.495-3.703 0-2.023-1.566-3.668-3.495-3.668z"></path>
</symbol>
<symbol id="icon-twitter-1" viewBox="0 0 29 32">
<path  d="M29.107 7.195c-1 0.471-2.16 0.818-3.378 0.983l-0.062 0.007c1.25-0.797 2.18-1.999 2.614-3.418l0.012-0.044c-1.087 0.688-2.354 1.213-3.709 1.502l-0.076 0.014c-1.071-1.21-2.626-1.972-4.358-1.981h-0.002c-3.304 0-5.963 2.814-5.963 6.262 0 0.496 0.039 0.975 0.138 1.428-4.962-0.253-9.352-2.748-12.301-6.547-0.515 0.912-0.818 2.002-0.82 3.163v0c0 2.169 1.065 4.090 2.651 5.204-0.997-0.031-1.922-0.313-2.721-0.786l0.026 0.014v0.068c0 3.042 2.068 5.571 4.782 6.153-0.456 0.131-0.979 0.207-1.52 0.207-0.016 0-0.031-0-0.047-0h0.002c-0.027 0-0.058 0.001-0.090 0.001-0.368 0-0.727-0.040-1.073-0.115l0.033 0.006c0.773 2.479 2.966 4.303 5.576 4.361-1.998 1.662-4.591 2.671-7.419 2.671-0.497 0-0.986-0.031-1.466-0.091l0.057 0.006c2.557 1.759 5.72 2.809 9.129 2.809 0.009 0 0.019 0 0.028-0h-0.001c10.982 0 16.987-9.543 16.987-17.816 0-0.277-0.009-0.543-0.022-0.809 1.185-0.899 2.179-1.976 2.962-3.201l0.029-0.049z"></path>
</symbol>
<symbol id="icon-Vector" viewBox="0 0 20 32">
<path  d="M17.022 0h-14.014c-1.656 0-3.003 1.347-3.003 3.003v26.025c0 1.656 1.347 3.003 3.003 3.003h14.014c1.656 0 3.003-1.347 3.003-3.003v-26.025c0-1.656-1.347-3.003-3.003-3.003zM3.009 2.002h14.014c0.553 0 1.001 0.448 1.001 1.001v0 21.021h-16.016v-21.021c0-0.553 0.448-1.001 1.001-1.001v0zM17.022 30.029h-14.014c-0.553 0-1.001-0.448-1.001-1.001v0-3.003h16.016v3.003c0 0.553-0.448 1.001-1.001 1.001v0z"></path>
</symbol>
</defs>
</svg>
